<?xml version="1.0" encoding="utf-8"?>
<!-- Generator: Adobe Illustrator 22.0.0, SVG Export Plug-In . SVG Version: 6.00 Build 0)  -->
<svg version="1.1" id="Layer_1" xmlns="http://www.w3.org/2000/svg" xmlns:xlink="http://www.w3.org/1999/xlink" x="0px" y="0px"
	 viewBox="0 0 1000 1000" style="enable-background:new 0 0 1000 1000;" xml:space="preserve">
<style type="text/css">
	.st0{fill:url(#SVGID_1_);}
	.st1{fill:url(#SVGID_2_);}
</style>
<g>
	<linearGradient id="SVGID_1_" gradientUnits="userSpaceOnUse" x1="500.8845" y1="895.5225" x2="500.8845" y2="-2.946377e-02">
		<stop  offset="0" style="stop-color:#B89563"/>
		<stop  offset="9.117265e-02" style="stop-color:#BB965E"/>
		<stop  offset="0.2167" style="stop-color:#C39751"/>
		<stop  offset="0.3053" style="stop-color:#CC9944"/>
		<stop  offset="0.4556" style="stop-color:#CE9D44"/>
		<stop  offset="0.6571" style="stop-color:#D6AA46"/>
		<stop  offset="0.8867" style="stop-color:#E3C148"/>
		<stop  offset="0.959" style="stop-color:#E9C949"/>
	</linearGradient>
	<path class="st0" d="M314.1,290.2c10.2,3.8,14.4,5.4,18.6,7c4.7,1.8,8.7,4.3,6.7,10.1c-1.9,5.4-6.4,4.5-10.8,3.3
		c-4.7-1.3-10.7-4.1-12.7,2.6c-2.2,7.2,4.5,8.2,9.6,9.5c5.5,1.4,12.7,2.7,11.7,9.5c-1.1,7.6-8.4,4.8-13.8,4.8
		c-2.7,0-7.2,1.6-7.8,3.5c-1.9,5.3,2.2,8.2,6.6,10.4c5.4,2.6,14,3.2,13,11.1c-0.8,6.9-8.1,4.5-13.2,5c-1.4,0.1-3.8,2.5-3.6,3.3
		c1,5,5.4,5.3,9.4,5.2c28-0.4,56.1-2.4,84-1.3c123,4.5,244.2-10,364.9-31c25.4-4.4,39.6,3.7,44.4,28.3c6,29.9,15.4,59.8,16.3,89.9
		c1.3,47,22.7,83.5,50.6,117.9c17.6,21.6,20.3,42-1.6,62c-25.5,23.3-50.2,47.6-77,69.3c-20.8,16.8-45.6,7.2-68.8,4.1
		c-42.7-5.8-75.1,26.3-71.4,70c3.1,36.5-6.9,71.7-15.2,106.7c-3.5,15-14.4,10.5-23.3,1.9c-6-5.7-11.4-15.4-21.1-11.3
		c-9.8,4.1-11.3,14.9-11.8,24.4c-0.9,19-9.7,29-29.1,32.2c-30.1,5-60.3,6-90.7,5.1c-31.4-1-46.8-19.6-54.1-48.2
		c-2.5-9.6-7.3-19-12.9-27.3c-7.3-10.8-17.1-12-26.1-1.4c-15.8,18.5-34.2,14-52,4.9c-17.7-9-25.7-24.1-21.3-44.2
		c4.4-20,4.5-39.6-1.5-59.4c-16.9-54.7-47.5-62.5-121.7-41.2c-32.9,9.4-45.6-15.4-63.5-31.1c-14.1-12.4-2.5-24.8,5.5-36.3
		c8.2-11.6,7.7-22.8-1.6-34.3c-8.9-10.9-17.2-22.5-24.6-34.5c-6.4-10.3-6.1-21.2,2.7-30.8c5.8-6.3,11.1-13.2,17.7-18.5
		c48.1-39.2,33.1-95.2,38.8-145.4c2-17.5,9.6-24.4,25.5-24c26,0.7,52,2.3,78,3.4c4.6,0.2,10.4-0.1,10.9-5.9c0.6-6.6-5.8-2.9-8.8-4.5
		c-2.7-1.4-4.7-3.9-7-5.9c3.1-3.1,5.7-6.8,9.3-9.1c4.7-3,11.8-4.9,10.5-11.4c-1.3-6.8-7.9-0.8-11.8-2.4c-2.8-1.1-7.2-2.9-7.4-4.8
		c-0.6-6,5.1-7.4,9.4-9.9c3.4-2,6.2-5,9.2-7.6c-3.3-0.8-6.7-1.2-9.7-2.4c-2.6-1-6.5-2.9-6.7-4.6c-0.2-2.6,2.1-5.6,3.9-8.1
		c1.8-2.7,4.2-5,6.4-7.4c-3.5-1.5-6.9-4.1-10.5-4.3c-21.4-1-42.8-1.1-64.2-2.2c-23.4-1.1-30.6-14.5-19.3-34.4
		c29.4-51.7,77.1-71.9,133.4-79.4c68.1-9.1,135.6-32.7,204.6-19.4c70.7,13.6,140.8,32.3,207.2,61.6c8.1,3.6,15.2,10.4,21.4,17
		c12,12.5,6.5,21.1-8.2,24.4c-85,18.5-170.9,28.3-257.9,28.5c-50.4,0.1-100.9,2.3-151.3,3.7C326.8,287.2,323.5,288.3,314.1,290.2z
		 M626.1,597.1c69.6-0.7,111.1-33.1,120.8-94.3c2.7-17,0.6-32.2-14.5-43c-15.3-10.9-32.6-13.3-48.7-4.9
		c-45.2,23.5-89.7,48.6-134.4,73c-7,3.8-10.1,10.6-5.2,16.3C566.3,569.6,587.3,597.3,626.1,597.1z M261.2,431.3
		c-18.1-3.1-30.5,7.2-39.1,22.4c-21,37.1,7.2,104.8,48.4,116.1c25.7,7.1,51.6,13.4,77.6,19.4c17.7,4.1,38,8.3,46.9-12.3
		c8-18.7,2.5-37.9-13.5-52.7c-19.5-18.1-37.6-37.9-58.2-54.7C304.8,454.4,293,427.5,261.2,431.3z M508.5,770.4
		c19,0.5,28.5-7.8,19.9-28.3c-8.3-19.9-17.6-39.5-27.2-58.9c-4.1-8.3-6-21-18.3-20.5c-12.5,0.5-15.6,12.6-19.5,22.2
		C447.1,725.7,470.3,770.9,508.5,770.4z"/>
	<linearGradient id="SVGID_2_" gradientUnits="userSpaceOnUse" x1="500" y1="895.5225" x2="500" y2="-2.946377e-02">
		<stop  offset="0" style="stop-color:#B89563"/>
		<stop  offset="9.117265e-02" style="stop-color:#BB965E"/>
		<stop  offset="0.2167" style="stop-color:#C39751"/>
		<stop  offset="0.3053" style="stop-color:#CC9944"/>
		<stop  offset="0.4556" style="stop-color:#CE9D44"/>
		<stop  offset="0.6571" style="stop-color:#D6AA46"/>
		<stop  offset="0.8867" style="stop-color:#E3C148"/>
		<stop  offset="0.959" style="stop-color:#E9C949"/>
	</linearGradient>
	<path class="st1" d="M462.8,59c75.2-9.9,146.6,6.2,216.7,30.3c86.8,29.9,142.4,89.4,168,177.2c6.8,23.3,13.7,46.6,21.8,69.4
		c7.2,20.3,25.9,9.8,39.1,11.3c71.6,8.3,78,13.5,86.7,86c2.8,23.1,4.2,46.5,4.2,69.7c0.1,22.8-1,47.3-24.9,59.3
		c-26.7,13.3-53.3,8.4-79.4-5.3c-30.6-16.1-36.6-45.3-39.3-74.1c-6.2-66.8-28.5-128.4-52.7-190.1c-12.1-30.6-29.4-58-46.3-85.7
		c-15-24.6-41.1-37.2-66.7-45.1c-62.3-19.3-125.2-36.3-190.4-44.6c-73.4-9.3-140.2,12.2-206,39.5c-27,11.2-56,17.8-80.3,35
		c-43.3,30.5-50.1,77.3-54.9,124.4c-5.6,55.7-8.8,111.8-15.7,167.4c-4.7,38.5-67.3,79-105.4,70.4c-26-5.9-30.3-28.6-33.1-49.8
		c-5.5-41.2-4-82.7,2.1-123.8c4.9-33,31.5-42.3,59.2-45.5c38.3-4.4,47.3-10.3,44.6-49.1C105.8,226,140.4,186,179,150.6
		c47.9-43.9,102-79.9,169.4-89.7C386.6,55.4,424.8,60.4,462.8,59z"/>
</g>
</svg>
