<?xml version="1.0" encoding="utf-8"?>
<!-- Generator: Adobe Illustrator 22.0.0, SVG Export Plug-In . SVG Version: 6.00 Build 0)  -->
<svg version="1.1" id="Layer_1" xmlns="http://www.w3.org/2000/svg" xmlns:xlink="http://www.w3.org/1999/xlink" x="0px" y="0px"
	 viewBox="0 0 1000 1000" style="enable-background:new 0 0 1000 1000;" xml:space="preserve">
<style type="text/css">
	.st0{fill:url(#SVGID_1_);}
	.st1{fill:url(#SVGID_2_);}
	.st2{fill:url(#SVGID_3_);}
	.st3{fill:url(#SVGID_4_);}
	.st4{fill:url(#SVGID_5_);}
</style>
<g>
	<linearGradient id="SVGID_1_" gradientUnits="userSpaceOnUse" x1="499.4497" y1="763.1479" x2="499.4497" y2="188.1377">
		<stop  offset="0" style="stop-color:#B89563"/>
		<stop  offset="9.117265e-02" style="stop-color:#BB965E"/>
		<stop  offset="0.2167" style="stop-color:#C39751"/>
		<stop  offset="0.3053" style="stop-color:#CC9944"/>
		<stop  offset="0.4556" style="stop-color:#CE9D44"/>
		<stop  offset="0.6571" style="stop-color:#D6AA46"/>
		<stop  offset="0.8867" style="stop-color:#E3C148"/>
		<stop  offset="0.959" style="stop-color:#E9C949"/>
	</linearGradient>
	<path class="st0" d="M502.1,385.8c19-0.2,38-0.4,56.9-2.1c23.8-2.2,47.5-5.8,71.2-9c15.5-2.1,31-4.6,46.4-6.9
		c10.7-1.6,21.3-3.8,32-4.6c10-0.7,12.6,2,16.4,11.2c9.3,22.5,11.1,46.5,14.9,70.1c1.7,10.3,1.6,21,3.6,31.2
		c1.3,6.8,4.1,13.8,7.8,19.7c7.4,11.8,16,23,23.9,34.5c2.7,4,5.3,8.1,7.4,12.4c3.5,7.3,2.8,14.3-1.6,21.3
		c-7.5,11.7-17.9,20.6-28.1,29.6c-10,8.8-20.2,17.4-29.9,26.5c-5.2,4.9-11.1,6.8-18,7.3c-12.7,0.8-24.9-1.8-37.1-4.3
		c-13.7-2.8-24.6,0.7-33.1,12.6c-8.2,11.5-14.4,22.9-12.9,37.7c1.9,18.9-3.3,37-6.3,55.4c-1,6.2-1.8,12.6-3.3,18.7
		c-2.3,9.1-8.1,10.5-14.8,4c-2.4-2.3-4.6-4.9-7.1-7c-6.2-5.3-12.5-4.1-15.7,3.4c-1.9,4.5-3.1,9.6-3.5,14.5
		c-1.1,13.2-4.1,16.1-16.9,18.7c-21.5,4.4-43.3,4.9-65.1,4.2c-12.3-0.4-23.7-4-30.4-15.2c-3.3-5.4-4.9-12-6.9-18.1
		c-2.7-8.5-5.7-16.7-12.6-22.9c-4.9-4.4-9.1-4.5-14.2-0.2c-0.6,0.5-1.2,1.1-1.8,1.7c-5.1,5.9-11,10.6-19.3,9.4
		c-11.1-1.7-21.6-5.5-28.3-15.2c-4.9-7.2-4.2-16.2-2.1-23.8c5.4-20.3-0.5-38.3-9.4-55.8c-6.2-12.2-16.2-19.1-30.4-18.9
		c-14.5,0.2-29.1-1.2-43,4.1c-1.9,0.7-3.9,1-5.7,2c-8.2,4.4-15.7,3.5-22.7-2.4c-6.4-5.3-13.1-10.3-19.1-16
		c-7.3-7.1-7.3-14.7-0.9-22.7c1.5-1.8,2.9-3.6,4.2-5.6c5.2-7.9,4.5-16.9-1.8-24C233,548,224,532.9,217.6,516.3
		c-1.6-4.2-2.6-8.6-3.4-13c-1.3-7.2,2.8-12.4,7.3-17.3c6.6-7,13.5-13.9,19.9-21.1c2.3-2.5,4.3-5.7,5.2-9
		c3.9-15.3,7.4-30.8,10.9-46.2c1.2-5.2,1.3-10.6,2.8-15.6c2.2-7.1,6.9-10.4,14.3-10.1c18.1,0.7,36.2,1.7,54.3,2.6
		c5.2,0.2,10.3,0.3,15.5,0.2c3.2-0.1,5.5-1.4,5.6-5c0.1-3.3-0.8-5.3-4.7-4.1c-1.1,0.3-2.4,1-3.4,0.7c-1.9-0.6-3.6-1.8-5.3-2.8
		c1-1.7,1.6-4.1,3.1-5c2.7-1.6,6.2-1.8,8.7-3.5c2-1.4,3.9-4,4.3-6.4c0.7-3.6-1.5-5.2-5.2-3.9c-1.7,0.6-3.5,1.7-5.2,1.7
		c-1.6-0.1-3.8-1.1-4.4-2.3c-0.5-1.2,0.2-3.7,1.3-4.6c1.5-1.4,3.8-1.9,5.8-2.8c2-0.8,4.4-1.2,5.8-2.6c1.2-1.1,1.3-3.4,1.9-5.2
		c-1.6-0.4-3.2-1-4.7-1c-1.6,0-3.4,1.2-4.8,0.8c-1.7-0.5-4-1.8-4.4-3.2c-0.3-1.2,1.3-3.4,2.6-4.5c1-0.9,2.9-0.7,4.2-1.5
		c1.3-0.8,2.9-2.2,3-3.4c0-1.3-1.4-3.2-2.7-3.7c-2.3-0.9-4.8-1.2-7.3-1.3c-14.1-0.4-28.3-0.6-42.4-1.1c-7.9-0.3-15.4-2-19.3-10
		c-0.8-1.7-1.4-4.7-0.5-5.9c6.9-9.5,10.7-20.9,19.8-29.2c10-9.2,22.1-14.8,33.2-22c7.5-4.9,15.9-7.1,24.8-8.5
		c31.9-5,63.7-10.6,95.6-15.8c19.6-3.2,39.5-5.7,59.2-3.2c14.9,1.8,29.5,6.6,44.1,10.5c23.2,6.2,46.4,12.4,69.3,19.4
		c13.9,4.3,27.6,9.7,41,15.7c5.6,2.5,10.4,7.3,14.7,11.8c6.4,6.8,4.1,13.7-5,15.4c-27.2,5-54.3,10.5-81.7,14.4
		c-18.9,2.7-38.1,3.5-57.2,4.3c-25.4,1.1-50.9,1.5-76.4,2.1c-18.3,0.4-36.6,0.7-54.9,1.2c-7.7,0.2-15.3,0.5-22.9,1.1
		c-1.8,0.2-3.5,1.9-5.2,2.9c1.6,1.2,3,2.7,4.7,3.4c2.8,1.1,5.8,1.4,8.6,2.4c2.9,1,5.2,2.9,3.6,6.4c-1.5,3.2-4.2,2.6-6.9,1.4
		c-1.1-0.5-2.1-1.3-3.2-1.5c-2.2-0.2-5.6-0.9-6.3,0.1c-1.4,2.1-1.9,5.3-1.6,7.8c0.2,1.2,3.1,2.3,5,2.8c2.8,0.9,6.1,0.8,8.7,2.2
		c1.7,0.9,2.4,3.6,3.6,5.6c-2.1,0.8-4.1,1.9-6.2,2.3c-1.1,0.2-2.4-0.9-3.7-1.3c-2.8-0.7-6.1-2.2-7.6,2c-1.4,3.9,0.6,8.2,4.2,9.4
		c2.8,1,6,1.2,8.5,2.7c1.6,1,2.2,3.6,3.2,5.4c-2.1,0.7-4.2,1.7-6.4,2.1c-1,0.2-2.2-1.2-3.2-1c-1.8,0.3-3.6,1.2-5.3,1.9
		c1,2,1.6,4.5,3.2,5.9c1.1,1,3.5,0.6,5.3,0.7c13.8,0,27.7,0,41.5,0C424.2,386.6,476.1,386.2,502.1,385.8z M594,543.2
		c4-0.3,8.2,0.2,11.9-1.1c17.5-5.9,34.9-11.9,52-18.7c7.8-3.1,12.1-9.9,13.7-18.5c1.2-6.4,3.7-12.5,4.7-18.8c1.3-8,3-16.3,2.1-24.1
		c-2.2-18.9-27.9-30.7-46.1-21.1c-31.3,16.5-62.3,33.8-93.3,50.9c-8.2,4.5-8.8,10.5-2.2,17.4c5.8,6,11.4,12.2,17.7,17.6
		C565.8,536.4,577.8,544.9,594,543.2z M303.9,461.1c0,16,4,28.7,11.4,39.9c8.2,12.5,18.4,21.5,33.7,24.4c9.5,1.8,18.6,5.1,28,7.4
		c11,2.6,22,5.2,33.2,6.9c10.7,1.7,23.4-7.3,23.4-17.1c0-11.3-1.1-22.4-10.5-31.1c-21.1-19.6-41.8-39.6-62.7-59.5
		c-5.8-5.5-12.5-8.8-20.7-8.1c-2.6,0.2-5.3,0.1-8,0c-5.5-0.1-9.9,2.2-14,5.7C307.3,438.4,302.7,449.4,303.9,461.1z M508.5,665.3
		c3.3-0.4,6.7-0.3,9.9-1.1c7.2-1.8,10.3-7.1,8.5-14.4c-0.5-2.1-1.2-4.2-2.1-6.1c-7.2-15.9-14.4-31.8-21.9-47.6
		c-5.8-12.3-13.6-12.8-21.4-1.8c-0.3,0.4-0.6,0.8-0.8,1.3c-7.9,16.2-10.3,33.2-1.9,49.4C484.7,656.2,493.5,666,508.5,665.3z"/>
	<linearGradient id="SVGID_2_" gradientUnits="userSpaceOnUse" x1="787.2457" y1="376.9341" x2="787.2457" y2="-76.6643">
		<stop  offset="0" style="stop-color:#D9B046;stop-opacity:0.6"/>
		<stop  offset="0.2202" style="stop-color:#DCB546;stop-opacity:0.6"/>
		<stop  offset="0.5242" style="stop-color:#E3C348;stop-opacity:0.6"/>
		<stop  offset="0.8755" style="stop-color:#EFDA4A;stop-opacity:0.6"/>
		<stop  offset="0.959" style="stop-color:#F2E14B;stop-opacity:0.6"/>
	</linearGradient>
	<path class="st1" d="M944.6,353.3c-0.8,3.9-1.7,9.6-3,15.2c-1.3,5.7-5.8,8.7-11,8.4c-10.1-0.6-20.1-2.1-30.1-3.4
		c-3.7-0.5-5.4-3.2-5.9-6.5c-1.3-8.7-2.9-17.4-3.4-26.2c-1.6-27.2-5.4-54-16.3-79.3c-2-4.6-3.7-9.3-5.4-14
		c-8.7-23.7-24.2-42.9-40-62.1c-12.1-14.8-26-27.2-41.5-37.8c-8.7-6-18.6-10.1-28-15c-7.5-3.9-14.9-8-22.7-11.5
		c-24.2-11-49-20-76.1-20.4c-6.3-0.1-12.5-1.7-18.7-3.1c-7.5-1.7-11.3-7.1-12.4-16.2c-0.8-7.3,1-14.1,4.7-20.1
		c1.7-2.8,5.5-4.9,8.8-5.9c4.8-1.5,10.1-2.7,15.1-2.5c18.3,0.8,36.2,3.7,54.2,7.3c22.3,4.5,41.5,16.2,62.9,22.4
		c17.5,5.1,31.1,16.3,45.1,26.9c13.5,10.2,26.7,20.9,39.5,32c5.2,4.5,9.1,10.5,13.4,16c12.8,16.2,25.1,32.8,34.3,51.2
		c7.3,14.7,13,30.2,18.9,45.6c8.3,21.6,12.6,44.1,14.7,67.1C942.9,331.5,943.6,341.4,944.6,353.3z"/>
	<linearGradient id="SVGID_3_" gradientUnits="userSpaceOnUse" x1="207.5514" y1="946.7134" x2="207.5514" y2="615.9872">
		<stop  offset="0" style="stop-color:#C5984E;stop-opacity:0.6"/>
		<stop  offset="0.2987" style="stop-color:#C29753;stop-opacity:0.6"/>
		<stop  offset="0.71" style="stop-color:#B99560;stop-opacity:0.6"/>
		<stop  offset="1" style="stop-color:#B1946B;stop-opacity:0.6"/>
	</linearGradient>
	<path class="st2" d="M52.3,660.8c-0.4-5.8-0.7-11.6-1.1-17.4c-1.2-15,9.5-26.9,24.4-27.3c14.4-0.4,17.1,1.9,22.7,15.8
		c3.6,8.9,4.7,17.5,4.2,27.1c-0.5,10.8,1.9,21.8,3.2,32.6c0.6,4.6,2.2,9.2,2,13.8c-0.4,11.5,1.2,22.6,5.4,33.2
		c2.8,7,5.7,14.3,10,20.4c8.9,12.8,18.4,25.3,28.4,37.3c9.7,11.8,21,22.2,30.3,34.3c9.7,12.7,22.4,21.2,35.7,29.2
		c3.7,2.2,7.7,3.9,11.6,5.8c11.2,5.5,22.2,11.4,33.6,16.2c7.5,3.1,15.6,4.7,23.4,7c11.9,3.5,23.7,7.7,35.8,10.4
		c10,2.2,20.5,2.4,30.7,3.8c2.2,0.3,5.3,1.5,6.2,3.2c4.7,8.2,7.2,16.9,3.4,26.2c-0.5,1.2-1.1,2.6-2.1,3.3c-7.6,5.2-15.3,9.4-25,10.4
		c-21.3,2.2-41.3-2.9-61.4-8.2c-7.8-2.1-15.4-5-23.1-7.6c-0.8-0.3-1.5-0.8-2.3-1c-17-3.8-31.5-13.4-46.5-21.4
		c-8.4-4.4-15.3-11.6-22.8-17.5c-1.4-1.1-2.6-2.6-4.1-3.6c-20.9-13.8-38.4-31.4-55.4-49.4c-7.8-8.3-13.9-18.2-20.6-27.5
		c-7.1-9.8-13.7-19.7-17.5-31.7c-6.2-19.5-15-38.1-21-57.6c-3.9-12.6-5.1-26.1-7.1-39.2c-1-6.9-1.1-13.9-1.6-20.9
		C51.7,660.8,52,660.8,52.3,660.8z"/>
	<linearGradient id="SVGID_4_" gradientUnits="userSpaceOnUse" x1="729.5995" y1="404.695" x2="729.5995" y2="30.5114">
		<stop  offset="0" style="stop-color:#D9B046;stop-opacity:0.6"/>
		<stop  offset="0.2202" style="stop-color:#DCB546;stop-opacity:0.6"/>
		<stop  offset="0.5242" style="stop-color:#E3C348;stop-opacity:0.6"/>
		<stop  offset="0.8755" style="stop-color:#EFDA4A;stop-opacity:0.6"/>
		<stop  offset="0.959" style="stop-color:#F2E14B;stop-opacity:0.6"/>
	</linearGradient>
	<path class="st3" d="M664.1,159.7c8.5,2.2,17.6,3,25.3,6.8c23.5,11.3,46.6,23.6,69.7,35.6c9.4,4.9,17.8,11,24.2,19.7
		c1.6,2.1,3.4,4.1,4.8,6.3c5.8,8.9,11.1,18.2,17.3,26.8c9.6,13.3,14.6,28.7,21,43.5c5.9,13.6,7.5,27.8,8.5,42.3
		c0.4,5.8,0.2,11.6,0.2,17.4c-0.1,10-8.7,16.9-17.4,18.6c-18.5,3.6-29.9-8-32-25.2c-1.9-15-5.1-29.8-8.2-44.6c-0.8-4-2.9-7.8-5-11.4
		c-5.9-10.2-11.9-20.4-18.3-30.4c-15.4-23.9-36.3-40.9-63.9-48.9c-6.3-1.8-13.1-2-19.7-3c-8.4-1.3-16.8-2.4-25.1-4.4
		c-9.5-2.3-16.9-7.8-20.4-17.3c-2.4-6.4-1.2-12.1,3.8-16.9c9.7-9.3,21.1-14.4,34.8-13.5C663.9,160.6,664,160.2,664.1,159.7z"/>
	<linearGradient id="SVGID_5_" gradientUnits="userSpaceOnUse" x1="267.0298" y1="836.2206" x2="267.0298" y2="619.0301">
		<stop  offset="0" style="stop-color:#C5984E;stop-opacity:0.6"/>
		<stop  offset="0.2987" style="stop-color:#C29753;stop-opacity:0.6"/>
		<stop  offset="0.71" style="stop-color:#B99560;stop-opacity:0.6"/>
		<stop  offset="1" style="stop-color:#B1946B;stop-opacity:0.6"/>
	</linearGradient>
	<path class="st4" d="M334.1,836.1c-17.9-2.6-36.3-3.6-52.8-11.7c-14.5-7.1-28.4-15.3-42.3-23.6c-5.2-3.1-9.6-7.7-13.9-12.1
		c-11-11.1-21.9-22.3-32.6-33.7c-8.8-9.4-14.8-20-16.1-33.5c-1.2-12.7-5.4-25-7.3-37.6c-2.2-14.1-5.6-28.4-0.3-42.4
		c2.5-6.4,6.4-12.5,10.6-17.9c4.7-6.1,20.4-5.9,25.4-0.1c1.6,1.9,2.8,4.5,3.2,7c2.5,14.1,4.8,28.2,6.9,42.3
		c1.4,9.7,1.6,19.6,3.4,29.2c0.9,5.2,3.3,10.4,6.1,15c4.2,7.1,9.1,13.9,14.1,20.5c8.9,11.6,22.6,16.7,34.2,24.7
		c5.7,4,11.9,7.5,17,12.1c8.9,7.9,19.9,9.8,30.7,12.3c9.5,2.2,19.3,3.4,28.9,5.2c2.7,0.5,5.4,1.7,8,2.8c5.1,2,8.2,5.1,8.1,11.2
		c0,3.6,1.5,7.1,2.4,10.7c1.1,4.6,0.3,7.9-4.4,10.2C354,831.3,345.2,837.1,334.1,836.1z"/>
</g>
</svg>
